<?xml version="1.0" encoding="utf-8"?>
<!-- Svg Vector Icons : http://www.onlinewebfonts.com/icon -->
<!DOCTYPE svg PUBLIC "-//W3C//DTD SVG 1.1//EN" "http://www.w3.org/Graphics/SVG/1.1/DTD/svg11.dtd">
<svg version="1.1" xmlns="http://www.w3.org/2000/svg" xmlns:xlink="http://www.w3.org/1999/xlink" x="0px" y="0px" viewBox="0 0 1000 1000" enable-background="new 0 0 1000 1000" xml:space="preserve">
<metadata> Svg Vector Icons : http://www.onlinewebfonts.com/icon </metadata>
<g fill="#228B22"><g transform="translate(0.000000,250.000000) scale(0.100000,-0.100000)"><path d="M4565.3,2336.9c-54.6-7.8-229.9-35.1-389.7-58.5c-939.2-136.4-1940.8-650.8-2650.1-1364c-1859-1858.9-1905.7-4820.8-105.2-6722.6c744.4-787.2,1683.6-1293.9,2743.6-1477c717.1-124.7,1710.9-54.5,2389,175.4c2572.1,861.3,3947.8,3601,3094.3,6149.7C9008,957.3,7203.7,2282.3,5149.9,2340.8C4880.9,2348.6,4619.8,2348.6,4565.3,2336.9z M5753.9,1651C6599.6,1510.7,7558.3,988.5,8135.1,361C9117.1-714.6,9487.4-2172.1,9125-3582.9c-101.3-393.6-440.4-1091.2-693.7-1422.5C7819.4-5808.1,7028.3-6334.2,6015-6611c-253.3-70.1-413.1-81.8-1001.6-81.8c-639.1-3.9-736.6,7.8-1083.4,101.3c-432.6,116.9-993.8,370.2-1356.2,611.9c-323.5,218.3-908,806.7-1118.5,1130.2c-448.2,682-662.5,1336.7-697.6,2127.9c-27.3,604,23.4,1024.9,183.2,1504.3C1615.1,813.1,3626,2009.5,5753.9,1651z"/><path d="M5286.3,672.8C5064.1,548.1,4955,364.9,4955,119.4c0-245.5,105.2-424.8,331.3-557.3c331.3-191,853.4-42.9,1013.3,288.4c85.8,183.2,62.3,467.7-50.7,631.3C6054,750.8,5586.3,844.3,5286.3,672.8z"/><path d="M4764-1384.9c-440.4-66.2-728.8-128.6-748.3-159.8c-70.1-109.1-35.1-148.1,120.8-148.1c116.9,0,183.2-27.3,257.2-97.4c128.6-128.6,132.5-116.9-358.5-1668c-249.4-783.3-405.3-1340.6-405.3-1441.9c0-674.2,954.8-771.6,1625.1-167.6c202.6,183.2,596.3,682,596.3,756c0,23.4-35.1,54.6-81.9,66.3c-58.5,19.5-97.4,3.9-144.2-66.3c-120.8-171.4-479.4-530-557.3-549.5c-116.9-31.2-191,70.1-163.7,218.2c11.7,70.2,249.4,841.8,526.1,1718.7c272.8,876.8,498.8,1609.5,498.8,1629C5929.3-1236.8,5496.7-1271.9,4764-1384.9z"/></g></g>
</svg>